<svg width="172" height="159" viewBox="0 0 172 159" fill="none" xmlns="http://www.w3.org/2000/svg">
<path d="M138.427 113.536C155.318 81.9703 144.069 41.4169 116.239 22.1872C87.5716 2.37706 39.5712 8.20418 21.3643 41.5964C10.8385 60.9008 8.10905 91.0005 18.1762 111.393C36.9411 149.409 94.2181 154.576 128.5 125.5" stroke="#1560BD" stroke-width="5" stroke-miterlimit="1.5" stroke-linecap="round" stroke-linejoin="round"/>
<path fill-rule="evenodd" clip-rule="evenodd" d="M136.36 115.794C134.648 119.196 131.997 121.972 130.734 123.128C136.001 128.672 143.156 134.879 149.02 139.622C152.681 142.585 156.465 145.022 160.234 147.808C163.216 150.013 169.079 151.602 169.088 146.266C169.094 142.183 164.756 138.614 162.008 136.125C154.419 129.247 144.217 122.216 136.36 115.794Z" stroke="#1560BD" stroke-width="5" stroke-miterlimit="1.5" stroke-linecap="round" stroke-linejoin="round"/>
</svg>
